<svg xmlns="http://www.w3.org/2000/svg" viewBox="0 0 64 64">
  <!-- STL Simulator mark: stylised biristor-style two-terminal symbol with the S-shaped latch
       characteristic in its body. Same geometry as src/components/Logo.tsx. -->
  <defs>
    <linearGradient id="g" x1="4" y1="2" x2="60" y2="62" gradientUnits="userSpaceOnUse">
      <stop offset="0" stop-color="#12b3a6"/>
      <stop offset=".52" stop-color="#4f6bef"/>
      <stop offset="1" stop-color="#7c3aed"/>
    </linearGradient>
    <radialGradient id="h" cx="14" cy="6" r="50" gradientUnits="userSpaceOnUse">
      <stop offset="0" stop-color="#fff" stop-opacity=".3"/>
      <stop offset=".7" stop-color="#fff" stop-opacity="0"/>
    </radialGradient>
  </defs>
  <rect width="64" height="64" rx="15" fill="url(#g)"/>
  <rect width="64" height="64" rx="15" fill="url(#h)"/>
  <rect x=".75" y=".75" width="62.5" height="62.5" rx="14.25" fill="none" stroke="#fff" stroke-opacity=".18" stroke-width="1.5"/>
  <g fill="none" stroke-linecap="round" stroke-linejoin="round">
    <g stroke="#0b1020" stroke-opacity=".16" transform="translate(0 1.4)">
      <path d="M6.5 32H15.5M48.5 32H57.5" stroke-width="5.5"/>
      <rect x="15.5" y="17" width="33" height="30" rx="8.5" stroke-width="5"/>
    </g>
    <path d="M6.5 32H15.5M48.5 32H57.5" stroke="#fff" stroke-width="4.5"/>
    <rect x="15.5" y="17" width="33" height="30" rx="8.5" stroke="#fff" stroke-width="4" fill="#fff" fill-opacity=".1"/>
    <path d="M21.5 40C28.5 40 35.6 39.2 37.8 35.8" stroke="#fff" stroke-width="3.6"/>
    <path d="M37.8 35.8C40.3 31.6 23.8 32.4 26.2 28.2" stroke="#fff" stroke-opacity=".5" stroke-width="3"/>
    <path d="M26.2 28.2C28.4 24.8 35 24 42.5 24" stroke="#fff" stroke-width="3.6"/>
  </g>
</svg>
